<svg width="50" height="50" viewBox="0 0 50 50" fill="none" xmlns="http://www.w3.org/2000/svg">
<circle cx="25" cy="25" r="25" fill="#ABAEB1"/>
<path fill-rule="evenodd" clip-rule="evenodd" d="M26.2339 18.1365C26.2339 17.5339 25.7455 17.0454 25.1429 17.0454C24.5403 17.0454 24.0518 17.5339 24.0518 18.1365V23.4827H18.7053C18.1027 23.4827 17.6143 23.9712 17.6143 24.5737C17.6143 25.1763 18.1027 25.6648 18.7053 25.6648H24.0518V31.0112C24.0518 31.6137 24.5403 32.1022 25.1429 32.1022C25.7455 32.1022 26.2339 31.6137 26.2339 31.0112V25.6648H31.58C32.1826 25.6648 32.6711 25.1763 32.6711 24.5738C32.6711 23.9712 32.1826 23.4827 31.58 23.4827H26.2339V18.1365Z" fill="white"/>
</svg>
