<svg width="61" height="58" viewBox="0 0 61 58" fill="none" xmlns="http://www.w3.org/2000/svg">
<path d="M30.5405 57.9999C16.0665 57.9999 0.451172 48.9212 0.451172 28.9999C0.451172 9.07869 16.0665 0 30.5405 0C38.5817 0 46.0003 2.64579 51.4993 7.47046C57.4653 12.762 60.6299 20.2325 60.6299 28.9999C60.6299 37.7673 57.4653 45.1859 51.4993 50.4775C46.0003 55.3022 38.5298 57.9999 30.5405 57.9999Z" fill="url(#paint0_radial_700_297)"/>
<path d="M55.3848 11.7607C58.1499 16.2223 59.5921 21.5346 59.5921 27.4435C59.5921 36.211 56.4275 43.6295 50.4615 48.9211C44.9625 53.7458 37.492 56.4435 29.5027 56.4435C20.1335 56.4435 10.3078 52.6304 4.50781 44.5426C10.0899 53.7043 20.5901 57.9998 30.5403 57.9998C38.5296 57.9998 46 55.3021 51.4991 50.4775C57.4651 45.1859 60.6297 37.7673 60.6297 28.9999C60.6297 22.3906 58.8295 16.518 55.3848 11.7607V11.7607Z" fill="#EB8F00"/>
<path d="M20.371 17.6074C18.1973 17.6074 16.2207 19.4439 16.2207 22.4944C16.2207 25.5448 18.1973 27.3761 20.371 27.3761C22.5498 27.3761 24.5212 25.5396 24.5212 22.4944C24.5212 19.4491 22.5706 17.6074 20.371 17.6074Z" fill="#422B0D"/>
<path d="M20.1908 19.6464C19.4541 19.2936 18.567 19.6049 18.209 20.3415C17.9341 20.9174 18.0586 21.6074 18.5203 22.0535C19.257 22.4063 20.1441 22.095 20.5021 21.3583C20.777 20.7825 20.6525 20.0925 20.1908 19.6464Z" fill="#896024"/>
<path d="M40.2928 17.6074C38.1191 17.6074 36.1426 19.4439 36.1426 22.4944C36.1426 25.5448 38.1191 27.3761 40.2928 27.3761C42.4665 27.3761 44.4431 25.5396 44.4431 22.4944C44.4431 19.4491 42.4665 17.6074 40.2928 17.6074Z" fill="#422B0D"/>
<path d="M40.0873 19.6464C39.3506 19.2936 38.4635 19.6049 38.1055 20.3415C37.8306 20.9174 37.9551 21.6074 38.4168 22.0535C39.1535 22.4063 40.0406 22.095 40.3985 21.3583C40.6735 20.7825 40.549 20.0925 40.0873 19.6464Z" fill="#896024"/>
<path d="M30.8418 36.9323C35.5472 36.8908 40.0502 38.8725 43.1992 42.3691C43.4378 42.6441 43.4949 43.0332 43.3445 43.3652C43.194 43.7024 42.862 43.9203 42.4937 43.9255C42.3277 43.9255 42.1616 43.8788 42.0164 43.7958C39.5159 42.3587 35.3345 40.5741 30.8522 40.5741H30.7796C26.3025 40.5741 22.1159 42.3587 19.6206 43.7958C19.4753 43.8788 19.3093 43.9255 19.1433 43.9255C18.7749 43.9203 18.4481 43.7024 18.2977 43.3652C18.142 43.0332 18.1991 42.6441 18.4429 42.3691C21.5919 38.8725 26.0898 36.8908 30.7951 36.9323" fill="#422B0D"/>
<defs>
<radialGradient id="paint0_radial_700_297" cx="0" cy="0" r="1" gradientUnits="userSpaceOnUse" gradientTransform="translate(30.5405 28.9999) scale(29.5497)">
<stop offset="0.5" stop-color="#FDE030"/>
<stop offset="0.92" stop-color="#F7C02B"/>
<stop offset="1" stop-color="#F4A223"/>
</radialGradient>
</defs>
</svg>
