<svg width="60" height="58" viewBox="0 0 60 58" fill="none" xmlns="http://www.w3.org/2000/svg">
<path d="M29.9948 57.8176C15.5663 57.8176 0 48.7675 0 28.9088C0 9.05017 15.5663 0 29.9948 0C38.0107 0 45.406 2.63748 50.8878 7.447C56.8351 12.722 59.9897 20.1689 59.9897 28.9088C59.9897 37.6487 56.8351 45.044 50.8878 50.3189C45.406 55.1285 37.959 57.8176 29.9948 57.8176Z" fill="url(#paint0_radial_700_305)"/>
<path d="M54.7621 11.7236C57.5185 16.1711 58.9562 21.4668 58.9562 27.3572C58.9562 36.097 55.8015 43.4923 49.8543 48.7673C44.3725 53.5768 36.9255 56.266 28.9613 56.266C19.6216 56.266 9.82669 52.4649 4.04492 44.4025C9.60948 53.5354 20.0766 57.8174 29.9956 57.8174C37.9598 57.8174 45.4068 55.1282 50.8886 50.3187C56.8358 45.0438 59.9905 37.6485 59.9905 28.9086C59.9905 22.3201 58.196 16.4659 54.7621 11.7236V11.7236Z" fill="#D84213"/>
<path d="M40.5146 49.7189C40.3388 49.6517 40.1784 49.5431 40.0543 49.3983C35.0224 44.1699 26.7014 44.0095 21.473 49.0414C21.3541 49.1604 21.23 49.2793 21.1162 49.3983C20.9921 49.5431 20.8318 49.6517 20.6559 49.7189C20.2681 49.8637 19.8285 49.781 19.5182 49.5069C19.2131 49.238 19.1096 48.8087 19.2648 48.4312C20.8059 44.475 25.3879 41.3721 30.5853 41.3721C35.7826 41.3721 40.3646 44.475 41.9057 48.426C42.0609 48.8036 41.9574 49.2328 41.6523 49.5017C41.342 49.7758 40.9025 49.8585 40.5146 49.7189Z" fill="#422B0D"/>
<path d="M27.1731 31.97C26.0146 30.5116 21.2413 27.7087 19.5192 26.8916C18.8779 26.5968 18.2108 26.3589 17.5282 26.1831C17.404 26.1469 17.2696 26.1313 17.1403 26.1313C16.4525 26.1469 15.8629 26.6382 15.7233 27.3156C15.563 28.019 15.925 28.743 16.5869 29.0326C17.3989 29.4308 18.8159 30.1858 20.2846 31.0184C19.0589 31.7476 18.3091 33.0715 18.3091 34.4989V35.2539C18.3091 37.3949 20.0467 39.1326 22.1877 39.1326C24.3287 39.1326 26.0663 37.3949 26.0663 35.2539V34.4989C26.0663 34.4678 26.0663 34.442 26.0663 34.411C26.6197 34.3748 27.1162 34.0438 27.3592 33.5473C27.6126 33.0302 27.5402 32.4148 27.1731 31.97Z" fill="#422B0D"/>
<path d="M45.4678 27.3155C45.323 26.6329 44.7231 26.1468 44.0249 26.1416C43.8956 26.1416 43.7612 26.1571 43.637 26.1933C42.9544 26.364 42.2873 26.6019 41.646 26.8915C39.9239 27.6982 35.1506 30.5115 33.9922 31.9596C33.625 32.4095 33.5629 33.0301 33.8215 33.5472C34.0697 34.0489 34.561 34.3747 35.1195 34.4109V34.4988V35.2538C35.1195 37.3948 36.8572 39.1325 38.9982 39.1325C41.1392 39.1325 42.8768 37.3948 42.8768 35.2538V34.4988C42.8768 33.0766 42.127 31.7579 40.9065 31.0287C42.3752 30.1961 43.7922 29.441 44.6041 29.0428C45.2712 28.7532 45.6384 28.024 45.4678 27.3155V27.3155Z" fill="#422B0D"/>
<path d="M21.9888 31.7792C21.2544 31.4275 20.3701 31.7378 20.0133 32.4722C19.7392 33.0462 19.8633 33.734 20.3236 34.1788C21.0579 34.5305 21.9423 34.2202 22.2991 33.4858C22.5732 32.9118 22.4491 32.224 21.9888 31.7792Z" fill="#896024"/>
<path d="M38.8032 31.7792C38.0689 31.4275 37.1846 31.7378 36.8277 32.4722C36.5536 33.0462 36.6778 33.734 37.138 34.1788C37.8724 34.5305 38.7567 34.2202 39.1135 33.4858C39.3876 32.9118 39.2635 32.224 38.8032 31.7792Z" fill="#896024"/>
<defs>
<radialGradient id="paint0_radial_700_305" cx="0" cy="0" r="1" gradientUnits="userSpaceOnUse" gradientTransform="translate(29.9948 28.9088) scale(29.4568 29.4569)">
<stop offset="0.12" stop-color="#FAC742"/>
<stop offset="0.32" stop-color="#FAC440"/>
<stop offset="0.48" stop-color="#FBBA3B"/>
<stop offset="0.62" stop-color="#FBA931"/>
<stop offset="0.76" stop-color="#FC9224"/>
<stop offset="0.88" stop-color="#FE7413"/>
<stop offset="1" stop-color="#FF5100"/>
</radialGradient>
</defs>
</svg>
