<svg width="61" height="58" viewBox="0 0 61 58" fill="none" xmlns="http://www.w3.org/2000/svg">
<path d="M30.5258 57.5762C16.1575 57.5762 0.65625 48.5638 0.65625 28.7881C0.65625 9.01237 16.1575 0 30.5258 0C38.5082 0 45.8726 2.62646 51.3315 7.41589C57.2539 12.6688 60.3954 20.0847 60.3954 28.7881C60.3954 37.4914 57.2539 44.8558 51.3315 50.1088C45.8623 54.8982 38.4567 57.5762 30.5258 57.5762V57.5762Z" fill="url(#paint0_radial_698_284)"/>
<path d="M20.6278 17.479C18.4699 17.479 16.5078 19.3021 16.5078 22.3302C16.5078 25.3584 18.4699 27.1763 20.6278 27.1763C22.7907 27.1763 24.7477 25.3532 24.7477 22.3302C24.7477 19.3072 22.8113 17.479 20.6278 17.479Z" fill="#422B0D"/>
<path d="M20.4487 19.5032C19.7174 19.153 18.8368 19.462 18.4814 20.1933C18.2085 20.7649 18.3321 21.4499 18.7904 21.8928C19.5217 22.243 20.4023 21.934 20.7577 21.2027C21.0306 20.631 20.907 19.9461 20.4487 19.5032Z" fill="#896024"/>
<path d="M40.4031 17.479C38.2453 17.479 36.2832 19.3021 36.2832 22.3302C36.2832 25.3584 38.2453 27.1763 40.4031 27.1763C42.561 27.1763 44.5231 25.3532 44.5231 22.3302C44.5231 19.3072 42.561 17.479 40.4031 17.479Z" fill="#422B0D"/>
<path d="M40.1967 19.5032C39.4654 19.153 38.5848 19.462 38.2295 20.1933C37.9565 20.7649 38.0801 21.4499 38.5385 21.8928C39.2698 22.243 40.1504 21.934 40.5057 21.2027C40.7787 20.631 40.6551 19.9461 40.1967 19.5032Z" fill="#896024"/>
<path d="M55.3842 11.6748C58.1291 16.1037 59.5608 21.3773 59.5608 27.243C59.5608 35.9464 56.4194 43.3108 50.4969 48.5637C45.038 53.3531 37.6221 56.0311 29.6912 56.0311C20.3905 56.0311 10.6365 52.2459 4.87891 44.2172C10.4202 53.3119 20.8437 57.5761 30.7212 57.5761C38.6521 57.5761 46.068 54.8981 51.5269 50.1087C57.4493 44.8558 60.5908 37.4914 60.5908 28.788C60.5908 22.227 58.8038 16.3973 55.3842 11.6748V11.6748Z" fill="#EB8F00"/>
<path d="M50.5333 33.2786C49.8123 31.9756 48.2467 31.404 46.8563 31.9293C41.5724 33.4691 36.0929 34.2364 30.5876 34.2107C25.0824 34.2364 19.6029 33.4691 14.319 31.9293C12.9337 31.404 11.3681 31.9705 10.6471 33.2682C9.94674 34.5609 10.4514 36.0595 11.0437 37.3521C14.3499 44.6135 21.6371 48.9601 30.5464 48.9858H30.6288C39.5382 48.9858 46.8254 44.6135 50.1368 37.3521C50.7238 36.0492 51.2337 34.5712 50.5333 33.2786V33.2786Z" fill="#422B0D"/>
<path d="M38.8321 46.9362C38.6416 46.7611 38.4459 46.6015 38.2502 46.4212C36.149 44.5724 33.4299 43.5785 30.6283 43.6351C27.7443 43.5888 24.9376 44.5466 22.6871 46.3491C22.4914 46.5088 22.2854 46.6633 22.0949 46.8641C21.9043 47.065 21.8013 47.2092 21.6777 47.3791C24.5102 48.4863 27.528 49.0528 30.5717 49.0374H30.6541C33.5689 49.0374 36.458 48.5172 39.1875 47.4924C39.0845 47.2967 38.966 47.1113 38.8321 46.9362Z" fill="#ED7770"/>
<path d="M46.8562 31.9295C41.5723 33.4693 36.0928 34.2367 30.5876 34.2109C25.0823 34.2367 19.6028 33.4693 14.3189 31.9295C12.9336 31.4042 11.368 31.9707 10.6471 33.2685C10.5441 33.4642 10.4617 33.6702 10.4102 33.8813C10.5801 33.9689 10.7758 34.0564 11.0075 34.1491C17.2081 37.2545 24.0626 38.8304 30.9944 38.748C37.643 38.8252 44.2143 37.3781 50.2191 34.5251C50.4611 34.4221 50.662 34.3242 50.8422 34.2315C50.801 33.8968 50.6929 33.5672 50.5332 33.2685C49.8122 31.9707 48.2467 31.3991 46.8562 31.9295V31.9295Z" fill="white"/>
<path d="M50.5539 33.2837C49.8226 31.9808 48.2519 31.404 46.8511 31.9293C41.5673 33.4691 36.0878 34.2364 30.5876 34.2107C25.0824 34.2364 19.6029 33.4691 14.319 31.9293C12.9337 31.404 11.3681 31.9705 10.6471 33.2682C9.94674 34.5609 10.4514 36.0595 11.0437 37.3521C11.3063 37.9341 11.5999 38.5057 11.9243 39.0568C11.9243 39.0568 10.8428 35.0501 11.7801 33.8862C12.0994 33.3919 12.635 33.0829 13.2221 33.052C13.4641 33.052 13.701 33.0932 13.9328 33.1653C19.3093 34.7463 24.8867 35.5445 30.4949 35.5342H30.6752C36.2835 35.5445 41.8608 34.7463 47.2373 33.1653C47.4691 33.0932 47.706 33.052 47.948 33.052C48.5351 33.0829 49.0759 33.3919 49.3952 33.8862C50.3479 35.0501 49.251 39.0722 49.251 39.0722C49.5703 38.5212 49.8896 37.9547 50.1573 37.3676C50.7444 36.075 51.2543 34.5815 50.5539 33.2837V33.2837Z" fill="#EB8F00"/>
<defs>
<radialGradient id="paint0_radial_698_284" cx="0" cy="0" r="1" gradientUnits="userSpaceOnUse" gradientTransform="translate(30.5258 28.7881) scale(29.3338)">
<stop offset="0.5" stop-color="#FDE030"/>
<stop offset="0.92" stop-color="#F7C02B"/>
<stop offset="1" stop-color="#F4A223"/>
</radialGradient>
</defs>
</svg>
